<?xml version="1.0" encoding="UTF-8" standalone="no"?>
<svg
   xmlns:dc="http://purl.org/dc/elements/1.1/"
   xmlns:cc="http://creativecommons.org/ns#"
   xmlns:rdf="http://www.w3.org/1999/02/22-rdf-syntax-ns#"
   xmlns:svg="http://www.w3.org/2000/svg"
   xmlns="http://www.w3.org/2000/svg"
   xmlns:sodipodi="http://sodipodi.sourceforge.net/DTD/sodipodi-0.dtd"
   xmlns:inkscape="http://www.inkscape.org/namespaces/inkscape"
   width="31.92341"
   height="53"
   version="1.1"
   id="svg4"
   sodipodi:docname="Kaktovik_digit_9.svg"
   inkscape:version="0.92.5 (2060ec1f9f, 2020-04-08)">
  <metadata
     id="metadata10">
    <rdf:RDF>
      <cc:Work
         rdf:about="">
        <dc:format>image/svg+xml</dc:format>
        <dc:type
           rdf:resource="http://purl.org/dc/dcmitype/StillImage" />
        <dc:title>Blank (NULL) image</dc:title>
      </cc:Work>
    </rdf:RDF>
  </metadata>
  <defs
     id="defs8" />
  <sodipodi:namedview
     pagecolor="#ffffff"
     bordercolor="#666666"
     borderopacity="1"
     objecttolerance="10"
     gridtolerance="10"
     guidetolerance="10"
     inkscape:pageopacity="0"
     inkscape:pageshadow="2"
     inkscape:window-width="1920"
     inkscape:window-height="1009"
     id="namedview6"
     showgrid="false"
     inkscape:zoom="8.1439182"
     inkscape:cx="-5.326261"
     inkscape:cy="5.1875474"
     inkscape:window-x="0"
     inkscape:window-y="0"
     inkscape:window-maximized="1"
     inkscape:current-layer="svg4"
     inkscape:document-rotation="0" />
  <title
     id="title2">Blank (NULL) image</title>
  <path
     inkscape:connector-curvature="0"
     id="path4639"
     style="fill:#000000;fill-opacity:1;stroke:#00000a;stroke-width:0;stroke-linecap:butt;stroke-linejoin:round;stroke-miterlimit:3.86370325;stroke-dasharray:none;stroke-opacity:1"
     d="m 4.1504914,20.540001 c 2.11733,2.15467 4.196,27.17465 5.25332,27.93067 0.9079896,0 2.5706796,0.52933 2.5706796,0.52933 l 3.89333,-17.80135 c 0,0 2.87199,16.66802 3.66531,17.80135 h 1.85201 c 3.024,-14.51335 3.66667,-21.24133 6.5387,-23.24399 -0.64267,-0.26418 -2.34271,0.11339 -3.2507,1.13333 -1.43599,1.512 -3.93067,15.912 -3.93067,15.912 l -3.552,-17.688 h -2.34399 l -3.77866,17.95333 c 0,0 -3.0239996,-19.76667 -3.2506596,-20.06933 3.0986496,-1.92802 7.0293196,-1.36135 17.8773196,-6.16135 2.04132,-1.852011 2.04132,-6.009341 2.04132,-6.009341 -2.19333,5.06536 -21.7332996,9.676011 -23.7359996,9.260001 z" />
</svg>
